<?xml version="1.0" encoding="UTF-8"?>
<svg version="1.1" xmlns="http://www.w3.org/2000/svg" width="512" height="512">
<path d="M0 0 C18.40131418 11.55316781 30.43557417 29.46090389 35.73974609 50.40551758 C37.37638031 57.75471832 39.37334908 69.92127059 35.91796875 76.83203125 C37.65046875 76.73921875 37.65046875 76.73921875 39.41796875 76.64453125 C47.84194863 76.67419315 55.80146932 80.92512955 61.8359375 86.65234375 C67.22826948 92.51607363 70.84377068 98.04696791 71.51953125 106.08984375 C71.59768066 106.98074707 71.67583008 107.87165039 71.75634766 108.78955078 C71.80968262 109.46356934 71.86301758 110.13758789 71.91796875 110.83203125 C72.93115173 110.82759003 73.94433472 110.8231488 74.98822021 110.818573 C84.57939411 110.77786783 94.17055026 110.74797091 103.76179123 110.72840691 C108.69165422 110.71801046 113.62144696 110.70392763 118.55126953 110.68115234 C123.31696505 110.65927539 128.08259338 110.64743157 132.84833527 110.64227676 C134.65821641 110.63860749 136.46809426 110.63144304 138.27794647 110.62057114 C161.12401817 110.48890564 179.28804467 114.39938036 196.49609375 130.3515625 C211.5687728 145.78890314 215.46928254 163.95504977 215.36401367 184.81616211 C215.35546878 187.39452192 215.38442852 189.97068354 215.41601562 192.54882812 C215.47174594 205.55509651 214.04073248 216.85065446 204.91796875 226.83203125 C204.07191228 227.54506755 203.22585581 228.25810385 202.35416126 228.99274731 C199.26881366 232.58859528 199.28881933 234.38651318 199.2787323 239.07698059 C199.27037662 239.79587438 199.26202095 240.51476817 199.25341207 241.25544661 C199.23150447 243.65883114 199.24508095 246.06068429 199.25854492 248.46411133 C199.25009116 250.18897663 199.2394468 251.91383239 199.22677612 253.63867188 C199.19860987 258.31811156 199.2011049 262.99709316 199.20906997 267.67659211 C199.21219306 272.56804826 199.18716645 277.45935801 199.16511536 282.35075378 C199.12764735 291.6118889 199.11552573 300.87287717 199.11249095 310.13408059 C199.10780312 320.6782022 199.07488861 331.22217643 199.0395931 341.76623309 C198.96762494 363.4548157 198.93113644 385.14333847 198.91796875 406.83203125 C199.72427734 406.81108398 200.53058594 406.79013672 201.36132812 406.76855469 C205.04674602 406.68493952 208.73196369 406.63322576 212.41796875 406.58203125 C213.68640625 406.54851562 214.95484375 406.515 216.26171875 406.48046875 C223.65712985 406.40343322 228.68651903 406.71777288 234.91796875 410.83203125 C240.48106806 416.68792527 241.49842531 421.54413488 241.35546875 429.49609375 C240.68261918 434.62657172 238.74685264 438.35317593 234.91796875 441.83203125 C229.42322892 445.2953377 224.82767387 446.41534789 218.39712524 446.33539581 C217.5731184 446.34120958 216.74911155 446.34702334 215.9001348 446.35301328 C213.14487403 446.36758644 210.39050786 446.3537407 207.63525391 446.33996582 C205.637643 446.34457579 203.64003549 446.35092935 201.64243507 446.3588748 C196.15750067 446.37557793 190.67284455 446.36731714 185.18790913 446.35492992 C179.27098515 446.34588586 173.35410927 446.35984598 167.43719482 446.37084961 C156.51749206 446.38761768 145.5978849 446.38615147 134.67817706 446.37520374 C124.59023109 446.36513962 114.50231763 446.36251559 104.41436768 446.36729431 C103.74508675 446.36759985 103.07580582 446.36790539 102.38624366 446.36822019 C99.66938158 446.36946555 96.95251953 446.37073916 94.23565749 446.37205925 C68.75187949 446.38429394 43.26815798 446.37320348 17.78438869 446.35167166 C-4.85405759 446.33268937 -27.49241388 446.33438789 -50.13085938 446.35351562 C-75.56816552 446.37493637 -101.00542176 446.38342625 -126.44273567 446.37106657 C-129.15463383 446.36978371 -131.866532 446.36853235 -134.57843018 446.36729431 C-135.24616362 446.366978 -135.91389707 446.36666169 -136.60186486 446.3663358 C-146.68321901 446.36178682 -156.76453708 446.36710531 -166.84588623 446.37721252 C-178.30939979 446.38842503 -189.77280377 446.3854081 -201.23630476 446.36408955 C-207.08638255 446.35356918 -212.93627758 446.3494743 -218.78635406 446.36268616 C-224.14047188 446.37459516 -229.49423731 446.3680718 -234.84832311 446.34677595 C-236.78629878 446.3423036 -238.72430416 446.34459029 -240.66226077 446.3542791 C-243.29566021 446.36643599 -245.92785137 446.35397526 -248.56118774 446.33539581 C-249.31438805 446.34476048 -250.06758835 446.35412514 -250.84361291 446.36377358 C-257.21304195 446.2738994 -262.43586995 444.23628601 -267.17578125 439.9296875 C-271.62707228 433.48768021 -272.3749882 427.53144404 -271.08203125 419.83203125 C-268.93345269 414.10248844 -265.46040559 410.75506078 -260.08203125 407.83203125 C-256.72467988 406.71291413 -254.19997739 406.71837539 -250.6640625 406.734375 C-249.41044922 406.73759766 -248.15683594 406.74082031 -246.86523438 406.74414062 C-245.55490234 406.75251953 -244.24457031 406.76089844 -242.89453125 406.76953125 C-241.55924644 406.77454808 -240.22395984 406.77911066 -238.88867188 406.78320312 C-235.61974652 406.7950043 -232.35091134 406.81146828 -229.08203125 406.83203125 C-229.02573177 384.15291375 -229.01509816 361.47418298 -229.0586853 338.79502869 C-229.07786182 328.26442136 -229.0821492 317.73420261 -229.05126953 307.20361328 C-229.02438954 298.02407028 -229.02556376 288.84503064 -229.06029034 279.66550636 C-229.07769892 274.80574211 -229.08115095 269.94687941 -229.05099487 265.0871582 C-229.0230353 260.50992549 -229.03267521 255.93429011 -229.07076836 251.35714531 C-229.07816788 249.68022432 -229.07199936 248.00317813 -229.05101204 246.32637215 C-228.72141089 237.34099959 -228.72141089 237.34099959 -231.82861328 229.16818237 C-233.88393016 227.04389796 -233.88393016 227.04389796 -236.08642578 225.42478943 C-241.68520687 220.9562186 -243.77189551 213.61101433 -245.08203125 206.83203125 C-245.36201692 203.91247638 -245.4094011 201.01379455 -245.41796875 198.08203125 C-245.42462555 197.26565186 -245.43128235 196.44927246 -245.43814087 195.6081543 C-245.44820966 193.88706694 -245.45295969 192.165941 -245.45263672 190.44482422 C-245.45697383 187.86617133 -245.49325331 185.28928449 -245.53125 182.7109375 C-245.66347457 163.34114284 -241.34738779 146.56839762 -228.08203125 131.83203125 C-215.22104151 118.79753743 -199.50208903 110.99775908 -180.96899414 110.71177673 C-179.49755965 110.7089253 -178.02610773 110.71142729 -176.5546875 110.71850586 C-175.74397293 110.71835983 -174.93325836 110.71821381 -174.09797668 110.71806335 C-171.44679996 110.71875407 -168.79569554 110.72650667 -166.14453125 110.734375 C-164.29508503 110.73624217 -162.4456383 110.73766466 -160.59619141 110.73866272 C-155.74980278 110.74246433 -150.90344456 110.75227431 -146.05706787 110.7633667 C-141.1031536 110.77363167 -136.14923437 110.7781712 -131.1953125 110.78320312 C-121.49087213 110.79389886 -111.78645423 110.81094673 -102.08203125 110.83203125 C-102.02040298 110.14360138 -101.95877472 109.45517151 -101.89527893 108.74588013 C-101.81067917 107.84376801 -101.72607941 106.94165588 -101.63891602 106.01220703 C-101.55666275 105.11752716 -101.47440948 104.22284729 -101.3896637 103.30105591 C-100.32381938 94.74670496 -94.50786597 88.1397953 -88.08203125 82.83203125 C-81.22535766 77.89875004 -74.33904023 76.54231164 -66.08203125 76.83203125 C-66.41203125 76.17203125 -66.74203125 75.51203125 -67.08203125 74.83203125 C-68.50187212 53.55769421 -63.3572036 33.54933641 -49.203125 17.1328125 C-48.50316406 16.37355469 -47.80320313 15.61429688 -47.08203125 14.83203125 C-46.30988281 13.97996094 -45.53773438 13.12789062 -44.7421875 12.25 C-32.12365679 -1.04630329 -17.41260973 -9.61860848 0 0 Z " fill="#F37973" transform="translate(271.08203125,35.16796875)"/>
<path d="M0 0 C18.40131418 11.55316781 30.43557417 29.46090389 35.73974609 50.40551758 C37.37638031 57.75471832 39.37334908 69.92127059 35.91796875 76.83203125 C37.65046875 76.73921875 37.65046875 76.73921875 39.41796875 76.64453125 C47.84194863 76.67419315 55.80146932 80.92512955 61.8359375 86.65234375 C67.22826948 92.51607363 70.84377068 98.04696791 71.51953125 106.08984375 C71.59768066 106.98074707 71.67583008 107.87165039 71.75634766 108.78955078 C71.80968262 109.46356934 71.86301758 110.13758789 71.91796875 110.83203125 C72.93115173 110.82759003 73.94433472 110.8231488 74.98822021 110.818573 C84.57939411 110.77786783 94.17055026 110.74797091 103.76179123 110.72840691 C108.69165422 110.71801046 113.62144696 110.70392763 118.55126953 110.68115234 C123.31696505 110.65927539 128.08259338 110.64743157 132.84833527 110.64227676 C134.65821641 110.63860749 136.46809426 110.63144304 138.27794647 110.62057114 C161.12401817 110.48890564 179.28804467 114.39938036 196.49609375 130.3515625 C211.5687728 145.78890314 215.46928254 163.95504977 215.36401367 184.81616211 C215.35546878 187.39452192 215.38442852 189.97068354 215.41601562 192.54882812 C215.47174594 205.55509651 214.04073248 216.85065446 204.91796875 226.83203125 C204.17289062 227.6621875 203.4278125 228.49234375 202.66015625 229.34765625 C195.95449192 235.42287351 186.52882927 238.19927172 177.60546875 238.39453125 C166.66319388 237.84002408 157.56187613 234.61130911 149.80078125 226.6640625 C148.11951392 224.75660057 146.49312106 222.82756183 144.91796875 220.83203125 C144.4075 221.48429688 143.89703125 222.1365625 143.37109375 222.80859375 C136.82986138 230.67199011 129.27039532 236.32534006 118.91796875 237.83203125 C107.00035637 238.70857417 97.22669816 236.55667478 87.91796875 228.83203125 C86.20227538 227.00244817 84.62620469 225.14885462 83.109375 223.15234375 C82.71621094 222.71664062 82.32304687 222.2809375 81.91796875 221.83203125 C81.25796875 221.83203125 80.59796875 221.83203125 79.91796875 221.83203125 C78.87299517 223.00168918 77.88187275 224.21971217 76.91796875 225.45703125 C70.86097724 232.58885423 62.60958025 237.25558872 53.25390625 238.203125 C39.71078435 238.43017931 30.81712561 235.34399031 20.78125 225.8203125 C18.91796875 223.83203125 18.91796875 223.83203125 17.91796875 221.83203125 C17.25796875 221.83203125 16.59796875 221.83203125 15.91796875 221.83203125 C14.87299517 223.00168918 13.88187275 224.21971217 12.91796875 225.45703125 C6.9356706 232.50090632 -1.34259593 237.34585246 -10.6328125 238.1328125 C-22.49124285 238.16975465 -30.7797233 236.42075616 -40.08203125 228.83203125 C-41.80026487 227.00365445 -43.37333423 225.14946151 -44.890625 223.15234375 C-45.28378906 222.71664062 -45.67695313 222.2809375 -46.08203125 221.83203125 C-46.74203125 221.83203125 -47.40203125 221.83203125 -48.08203125 221.83203125 C-49.12700483 223.00168918 -50.11812725 224.21971217 -51.08203125 225.45703125 C-57.0643294 232.50090632 -65.34259593 237.34585246 -74.6328125 238.1328125 C-86.50792011 238.1698066 -94.75949304 236.40877579 -104.08203125 228.83203125 C-106.26846141 226.59161516 -108.15178334 224.30670806 -110.08203125 221.83203125 C-113.49452869 222.9695304 -113.93372853 223.73315357 -116.01953125 226.51953125 C-121.26278266 232.73541139 -129.02888935 236.69761033 -137.08203125 237.83203125 C-149.36146472 238.65914335 -158.44807654 236.66187459 -168.08203125 228.83203125 C-170.26846141 226.59161516 -172.15178334 224.30670806 -174.08203125 221.83203125 C-177.34467104 222.91957785 -177.70391169 223.39535018 -179.64453125 226.01953125 C-184.94667654 232.41368164 -192.76601498 236.96238249 -201.08203125 237.83203125 C-210.07156403 238.47128691 -217.2002087 238.3644958 -225.08203125 233.83203125 C-226.11328125 233.39890625 -227.14453125 232.96578125 -228.20703125 232.51953125 C-236.34910837 227.74048599 -241.5275742 220.20557521 -244.1262207 211.22241211 C-245.19969623 206.81379003 -245.40475198 202.60467817 -245.41796875 198.08203125 C-245.42462555 197.26565186 -245.43128235 196.44927246 -245.43814087 195.6081543 C-245.44820966 193.88706694 -245.45295969 192.165941 -245.45263672 190.44482422 C-245.45697383 187.86617133 -245.49325331 185.28928449 -245.53125 182.7109375 C-245.66347457 163.34114284 -241.34738779 146.56839762 -228.08203125 131.83203125 C-215.22104151 118.79753743 -199.50208903 110.99775908 -180.96899414 110.71177673 C-179.49755965 110.7089253 -178.02610773 110.71142729 -176.5546875 110.71850586 C-175.74397293 110.71835983 -174.93325836 110.71821381 -174.09797668 110.71806335 C-171.44679996 110.71875407 -168.79569554 110.72650667 -166.14453125 110.734375 C-164.29508503 110.73624217 -162.4456383 110.73766466 -160.59619141 110.73866272 C-155.74980278 110.74246433 -150.90344456 110.75227431 -146.05706787 110.7633667 C-141.1031536 110.77363167 -136.14923437 110.7781712 -131.1953125 110.78320312 C-121.49087213 110.79389886 -111.78645423 110.81094673 -102.08203125 110.83203125 C-102.02040298 110.14360138 -101.95877472 109.45517151 -101.89527893 108.74588013 C-101.81067917 107.84376801 -101.72607941 106.94165588 -101.63891602 106.01220703 C-101.55666275 105.11752716 -101.47440948 104.22284729 -101.3896637 103.30105591 C-100.32381938 94.74670496 -94.50786597 88.1397953 -88.08203125 82.83203125 C-81.22535766 77.89875004 -74.33904023 76.54231164 -66.08203125 76.83203125 C-66.41203125 76.17203125 -66.74203125 75.51203125 -67.08203125 74.83203125 C-68.50187212 53.55769421 -63.3572036 33.54933641 -49.203125 17.1328125 C-48.50316406 16.37355469 -47.80320313 15.61429688 -47.08203125 14.83203125 C-46.30988281 13.97996094 -45.53773438 13.12789062 -44.7421875 12.25 C-32.12365679 -1.04630329 -17.41260973 -9.61860848 0 0 Z " fill="#F0F1F1" transform="translate(271.08203125,35.16796875)"/>
<path d="M0 0 C126.72 0 253.44 0 384 0 C384 32.01 384 64.02 384 97 C257.28 97 130.56 97 0 97 C0 86.44 0 75.88 0 65 C4.80433594 64.97421875 9.60867187 64.9484375 14.55859375 64.921875 C17.61658855 64.89668496 20.67448654 64.87033569 23.73242188 64.83984375 C28.57772081 64.79163863 33.42279544 64.74754557 38.26831055 64.72900391 C42.17840108 64.71377167 46.08790167 64.67921172 49.99772835 64.63169098 C51.48346874 64.61694438 52.9692934 64.60896287 54.45510674 64.60811615 C66.33185089 64.70468122 66.33185089 64.70468122 77 60 C80.23317399 56.34789815 81.79866235 53.27513845 82.5625 48.4375 C81.72606096 43.32592809 79.84449034 39.6768094 75.9375 36.125 C71.99441423 33.83546633 68.61684084 33.85012015 64.1418457 33.79467773 C63.44890411 33.78477814 62.75596252 33.77487854 62.04202271 33.76467896 C59.75331022 33.7331104 57.46457699 33.70832497 55.17578125 33.68359375 C53.58822594 33.66302021 52.00067606 33.64202363 50.41313171 33.62062073 C46.23583372 33.56544139 42.05848663 33.51601388 37.88110352 33.46777344 C32.86834088 33.40869326 27.85566793 33.34248805 22.84297943 33.27747345 C15.22870775 33.17951597 7.6143784 33.09062441 0 33 C0 22.11 0 11.22 0 0 Z " fill="#F0F1F1" transform="translate(86,306)"/>
<path d="M0 0 C0.81823762 -0.00235223 1.63647525 -0.00470446 2.47950795 -0.00712797 C5.2449644 -0.01383057 8.010374 -0.01335937 10.7758379 -0.01294994 C12.76912963 -0.01624778 14.76242069 -0.01997318 16.7557109 -0.02409142 C22.25185067 -0.0341286 27.74797952 -0.03783097 33.24412715 -0.04048073 C39.16453287 -0.04437868 45.0849299 -0.05395734 51.00533009 -0.0626936 C64.63563439 -0.081537 78.26594023 -0.09171604 91.89625416 -0.10015428 C98.63055474 -0.1043597 105.36485442 -0.10958183 112.09915425 -0.11483881 C135.14729534 -0.13272954 158.19543668 -0.14772601 181.24358368 -0.155159 C182.69076144 -0.15563376 184.13793921 -0.15610964 185.58511697 -0.15658666 C186.30279334 -0.15682303 187.02046971 -0.15705941 187.75989385 -0.15730295 C191.39605266 -0.15850416 195.03221145 -0.15971961 198.66837025 -0.16094494 C199.38997938 -0.16118509 200.11158851 -0.16142524 200.85506459 -0.16167267 C224.25399724 -0.16956648 247.65287921 -0.19299971 271.05178973 -0.22550088 C295.78511111 -0.25979289 320.51840283 -0.27950955 345.25174838 -0.28280324 C347.96653292 -0.28322078 350.68131744 -0.28370035 353.39610195 -0.28422642 C354.0645679 -0.28434961 354.73303385 -0.2844728 355.42175634 -0.28459973 C365.51633635 -0.28678804 375.61086338 -0.30009135 385.70542431 -0.31926441 C397.18734207 -0.34093415 408.66916727 -0.34904018 420.15110316 -0.33929763 C426.01128356 -0.33474219 431.87127281 -0.33671146 437.73142719 -0.35605907 C443.094978 -0.3736145 448.45819714 -0.37275503 453.8217511 -0.35716178 C455.76324849 -0.35477411 457.70476839 -0.35916895 459.64623126 -0.37099043 C462.28442 -0.38606065 464.92142618 -0.37647089 467.55958557 -0.36076355 C468.31421511 -0.37098576 469.06884466 -0.38120796 469.84634176 -0.39173993 C475.31813114 -0.32058657 479.50615924 1.12863619 484.09439564 4.13422108 C489.65749495 9.99011509 490.6748522 14.84632471 490.53189564 22.79828358 C489.85904607 27.92876155 487.92327952 31.65536575 484.09439564 35.13422108 C478.59965581 38.59752753 474.00410076 39.71753772 467.57355213 39.63758564 C466.74954529 39.6433994 465.92553844 39.64921317 465.07656169 39.6552031 C462.32130092 39.66977627 459.56693475 39.65593053 456.81168079 39.64215565 C454.81406989 39.64676562 452.81646238 39.65311918 450.81886196 39.66106462 C445.33392756 39.67776775 439.84927143 39.66950697 434.36433601 39.65711975 C428.44741203 39.64807569 422.53053616 39.66203581 416.61362171 39.67303944 C405.69391895 39.68980751 394.77431179 39.68834129 383.85460395 39.67739356 C373.76665798 39.66732944 363.67874452 39.66470541 353.59079456 39.66948414 C352.92151364 39.66978968 352.25223271 39.67009522 351.56267054 39.67041002 C348.84580847 39.67165538 346.12894642 39.67292898 343.41208438 39.67424907 C317.92830638 39.68648377 292.44458486 39.6753933 266.96081558 39.65386149 C244.32236929 39.6348792 221.68401301 39.63657771 199.04556751 39.65570545 C173.60826137 39.6771262 148.17100513 39.68561608 122.73369122 39.6732564 C120.02179306 39.67197354 117.30989489 39.67072218 114.59799671 39.66948414 C113.93026327 39.66916783 113.26252982 39.66885152 112.57456203 39.66852563 C102.49320788 39.66397664 92.41188981 39.66929513 82.33054066 39.67940235 C70.8670271 39.69061486 59.40362311 39.68759793 47.94012213 39.66627938 C42.09004433 39.65575901 36.24014931 39.65166413 30.39007282 39.66487598 C25.03595501 39.67678498 19.68218958 39.67026163 14.32810378 39.64896578 C12.39012811 39.64449343 10.45212273 39.64678012 8.51416612 39.65646893 C5.88076667 39.66862582 3.24857552 39.65616509 0.61523914 39.63758564 C-0.13796116 39.6469503 -0.89116147 39.65631497 -1.66718602 39.66596341 C-8.03661506 39.57608922 -13.25944306 37.53847584 -17.99935436 33.23187733 C-22.45064539 26.78987004 -23.19856131 20.83363387 -21.90560436 13.13422108 C-19.75702581 7.40467826 -16.2839787 4.05725061 -10.90560436 1.13422108 C-7.22428157 -0.09288652 -3.83314187 -0.00742095 0 0 Z " fill="#01B293" transform="translate(21.905604362487793,441.86577892303467)"/>
<path d="M0 0 C141.24 0 282.48 0 428 0 C428 12.87 428 25.74 428 39 C286.76 39 145.52 39 0 39 C0 26.13 0 13.26 0 0 Z " fill="#F37A74" transform="translate(42,403)"/>
<path d="M0 0 C18.40131418 11.55316781 30.43557417 29.46090389 35.73974609 50.40551758 C37.37638031 57.75471832 39.37334908 69.92127059 35.91796875 76.83203125 C33.60624308 77.46141721 31.31774196 78.00584483 28.98046875 78.51953125 C21.84005391 80.22251464 16.58804681 83.08250704 10.91796875 87.83203125 C10.19351563 87.34992188 9.4690625 86.8678125 8.72265625 86.37109375 C7.27246094 85.42363281 7.27246094 85.42363281 5.79296875 84.45703125 C4.84164062 83.83054687 3.8903125 83.2040625 2.91015625 82.55859375 C-5.36708935 77.78242854 -16.05142541 76.43845728 -25.33203125 78.83203125 C-30.881879 80.7956817 -35.46685112 84.247902 -40.08203125 87.83203125 C-42.77550747 86.57469117 -44.576462 85.41451195 -46.89453125 83.45703125 C-51.10817195 80.31763741 -55.98185967 79.32152485 -61.01489258 78.17626953 C-62.71696909 77.78055769 -64.4017177 77.31182153 -66.08203125 76.83203125 C-70.33642222 68.32324932 -67.09705296 53.56885135 -64.47265625 44.78515625 C-60.74073021 33.61165829 -55.07478016 23.50188228 -47.08203125 14.83203125 C-46.30988281 13.97996094 -45.53773438 13.12789062 -44.7421875 12.25 C-32.12365679 -1.04630329 -17.41260973 -9.61860848 0 0 Z " fill="#EC5D51" transform="translate(271.08203125,35.16796875)"/>
<path d="M0 0 C14.52 0 29.04 0 44 0 C44 10.89 44 21.78 44 33 C49.05570313 32.96519531 54.11140625 32.93039062 59.3203125 32.89453125 C62.52865743 32.87919747 65.73695699 32.86475527 68.9453125 32.85351562 C74.034601 32.83560196 79.12372713 32.81443999 84.21289062 32.77368164 C88.31721651 32.74101748 92.42136819 32.72313214 96.52581406 32.71536827 C98.08947363 32.7098374 99.65312398 32.69903688 101.21670914 32.68280983 C103.41177002 32.66094114 105.60611674 32.65803692 107.80126953 32.65942383 C109.04925323 32.65276199 110.29723694 32.64610016 111.58303833 32.63923645 C115.99144638 33.10467712 119.35521901 34.49977221 122.64453125 37.5 C126.47390814 42.41799573 127.61446018 45.75298814 127 52 C124.37517112 57.72212696 121.23319343 61.73353264 115.30380249 64.05612183 C111.72808414 65.07768486 108.79085813 65.24085821 105.07666016 65.22705078 C104.08048172 65.22748886 104.08048172 65.22748886 103.06417847 65.22793579 C100.88900263 65.22655261 98.71417782 65.21103988 96.5390625 65.1953125 C95.02306302 65.19157876 93.50706111 65.18873349 91.99105835 65.18673706 C88.01590218 65.17912902 84.04089394 65.1595051 80.0657959 65.1373291 C75.28832557 65.11319684 70.51080556 65.1040762 65.73329163 65.09242249 C58.48875844 65.07307883 51.24454936 65.03473678 44 65 C44 75.56 44 86.12 44 97 C29.48 97 14.96 97 0 97 C0 64.99 0 32.98 0 0 Z " fill="#DFDFDF" transform="translate(42,306)"/>
<path d="M0 0 C1.03189453 0.00141495 2.06378906 0.0028299 3.12695312 0.00428772 C6.39716589 0.00984983 9.6673082 0.02239523 12.9375 0.03515625 C15.16536359 0.04017615 17.39322826 0.0447382 19.62109375 0.04882812 C25.05991955 0.05980683 30.49870474 0.07650687 35.9375 0.09765625 C35.9375 0.42765625 35.9375 0.75765625 35.9375 1.09765625 C34.65617187 1.30519531 33.37484375 1.51273438 32.0546875 1.7265625 C19.75086643 3.86226162 8.40013248 6.48304866 -1.3203125 14.8203125 C-4.0625 17.09765625 -4.0625 17.09765625 -6.0625 17.09765625 C-6.45695312 17.97550781 -6.45695312 17.97550781 -6.859375 18.87109375 C-8.11640368 21.19741306 -9.50089018 22.80496117 -11.3125 24.72265625 C-24.34128197 39.45791071 -26.25400269 56.71753728 -26.30273438 75.67822266 C-26.31244754 77.96033082 -26.34354588 80.2415394 -26.375 82.5234375 C-26.46681346 95.01671177 -24.55896483 104.82749944 -17.0625 115.09765625 C-14.42073067 117.65460311 -14.42073067 117.65460311 -12.0625 119.09765625 C-13.0625 122.09765625 -13.0625 122.09765625 -15.20703125 123.23046875 C-16.52767578 123.72160156 -16.52767578 123.72160156 -17.875 124.22265625 C-19.18404297 124.72152344 -19.18404297 124.72152344 -20.51953125 125.23046875 C-28.73442168 128.03185996 -39.04210917 128.89900846 -47.125 125.28515625 C-48.44705921 124.5734683 -49.76091667 123.84613546 -51.0625 123.09765625 C-52.09375 122.66453125 -53.125 122.23140625 -54.1875 121.78515625 C-62.32957712 117.00611099 -67.50804295 109.47120021 -70.10668945 100.48803711 C-71.18016498 96.07941503 -71.38522073 91.87030317 -71.3984375 87.34765625 C-71.4050943 86.53127686 -71.4117511 85.71489746 -71.41860962 84.8737793 C-71.42867841 83.15269194 -71.43342844 81.431566 -71.43310547 79.71044922 C-71.43744258 77.13179633 -71.47372206 74.55490949 -71.51171875 71.9765625 C-71.64394332 52.60676784 -67.32785654 35.83402262 -54.0625 21.09765625 C-38.80945034 5.63883189 -21.40207024 -0.11194237 0 0 Z " fill="#DFDFDF" transform="translate(97.0625,145.90234375)"/>
<path d="M0 0 C1.33882801 1.04681007 2.65090215 2.1295839 3.921875 3.2578125 C5.87011228 4.84278914 5.87011228 4.84278914 9.67578125 4.46484375 C12.27525638 3.00257874 12.27525638 3.00257874 14.92578125 1.08984375 C24.23608569 -4.96982738 31.64548049 -5.2827814 42.67578125 -3.53515625 C48.88770621 -1.66509836 54.30672663 1.89522705 59.67578125 5.46484375 C60.28164063 4.99433594 60.8875 4.52382812 61.51171875 4.0390625 C71.45127358 -3.34679132 80.27339388 -5.69738254 92.67578125 -4.53515625 C95.5964234 -3.9019414 98.04068716 -2.9315309 100.67578125 -1.53515625 C101.67351562 -1.0246875 101.67351562 -1.0246875 102.69140625 -0.50390625 C111.27467986 4.34466052 117.16065837 11.95213904 120.27734375 21.26171875 C120.82379721 24.28328493 120.67578125 27.39426179 120.67578125 30.46484375 C63.25578125 30.46484375 5.83578125 30.46484375 -53.32421875 30.46484375 C-53.32421875 20.46357766 -51.04929479 13.89534734 -44.32421875 6.46484375 C-32.66265824 -4.91354421 -14.60000967 -9.64336773 0 0 Z " fill="#E4E5E4" transform="translate(222.32421875,116.53515625)"/>
<path d="M0 0 C0.7189595 -0.00817749 1.43791901 -0.01635498 2.17866516 -0.02478027 C4.56425139 -0.04964253 6.94977788 -0.06615646 9.33544922 -0.08056641 C10.55888346 -0.08855192 10.55888346 -0.08855192 11.80703354 -0.09669876 C16.12801931 -0.1234399 20.44897616 -0.14280763 24.77001953 -0.15722656 C28.3396175 -0.17054263 31.90864067 -0.19834981 35.47802734 -0.23925781 C39.79221617 -0.28870142 44.10588526 -0.31336256 48.42034531 -0.32045364 C50.06053207 -0.32714835 51.70070805 -0.34232395 53.34073257 -0.36634445 C69.98113673 -0.59606831 69.98113673 -0.59606831 76.01513672 5.19287109 C79.44746997 8.94698559 79.5304823 12.79342616 79.36279297 17.69287109 C78.64425464 22.85988829 76.4267894 26.05176371 72.33935547 29.35583496 C68.39564993 31.53521307 65.93909601 31.69962229 61.45263672 31.71044922 C60.72012695 31.7174585 59.98761719 31.72446777 59.23291016 31.73168945 C56.82659289 31.74920506 54.42146463 31.73767064 52.01513672 31.72412109 C50.33414485 31.72681788 48.65315451 31.73070186 46.97216797 31.73571777 C43.45508929 31.74160407 39.93841792 31.73307818 36.42138672 31.71435547 C31.92211483 31.6915661 27.42379745 31.7046939 22.92456055 31.72864532 C19.45516825 31.743127 15.98600078 31.73848653 12.51660156 31.72813416 C10.85807176 31.7254734 9.19952127 31.72871366 7.54101562 31.73805237 C5.21934251 31.74825756 2.89919661 31.73266388 0.57763672 31.71044922 C-0.74107422 31.70726685 -2.05978516 31.70408447 -3.41845703 31.70080566 C-8.29028879 31.00694983 -11.42034254 28.95750496 -14.66455078 25.29833984 C-17.47233699 20.79303582 -18.87657203 17.64220235 -17.98486328 12.19287109 C-14.58746668 3.62709457 -9.01405929 0.08891308 0 0 Z " fill="#ED5D51" transform="translate(360.98486328125,338.80712890625)"/>
<path d="M0 0 C1.06950394 -0.00788544 1.06950394 -0.00788544 2.16061401 -0.01593018 C4.50183452 -0.02906205 6.84236713 -0.02041679 9.18359375 -0.01025391 C10.81974416 -0.01227661 12.45589368 -0.01518969 14.09204102 -0.01895142 C17.51489883 -0.02336553 20.93752119 -0.01697329 24.36035156 -0.00292969 C28.73841598 0.01416179 33.11592859 0.00431569 37.49397278 -0.01364708 C40.87068813 -0.0245097 44.24727357 -0.02102725 47.62399292 -0.0132637 C49.23786485 -0.01126854 50.85174873 -0.01369686 52.46560669 -0.02070236 C54.72478283 -0.02835794 56.98307673 -0.01665639 59.2421875 0 C61.16695923 0.00358017 61.16695923 0.00358017 63.13061523 0.00723267 C67.57107815 0.49186492 70.94954747 1.8635428 74.265625 4.88818359 C78.09500189 9.80617933 79.23555393 13.14117173 78.62109375 19.38818359 C76.56985169 23.85989129 73.98083701 27.91766241 69.62109375 30.38818359 C66.08585059 31.56659798 63.2391567 31.54426219 59.50683594 31.58105469 C58.78612411 31.58923218 58.06541229 31.59740967 57.32286072 31.60583496 C54.93790509 31.63064475 52.55300886 31.64719457 50.16796875 31.66162109 C49.35201485 31.66694477 48.53606094 31.67226845 47.69538116 31.67775345 C43.37554362 31.70446728 39.05573478 31.72384683 34.73583984 31.73828125 C31.16624287 31.75161429 27.5972184 31.77945695 24.02783203 31.8203125 C19.71249508 31.86970262 15.39767692 31.89441001 11.0820694 31.90150833 C9.44105617 31.90820912 7.80005399 31.92340075 6.15920258 31.94739914 C-8.2840817 32.14656989 -8.2840817 32.14656989 -12.81933594 29.0234375 C-16.96627557 24.75387756 -18.53006865 21.35408906 -18.87890625 15.45068359 C-18.73273586 11.03899551 -17.68980874 8.36052775 -15.05859375 4.86083984 C-10.44441214 0.81538294 -5.99212264 0.01114564 0 0 Z " fill="#ED5D51" transform="translate(90.37890625,338.61181640625)"/>
<path d="M0 0 C0.70993607 -0.00861557 1.41987213 -0.01723114 2.15132141 -0.02610779 C4.47764469 -0.04864767 6.80275141 -0.04205164 9.12915039 -0.03295898 C10.75908258 -0.03820012 12.38901173 -0.04447839 14.01893616 -0.05174255 C17.4274833 -0.06212475 20.8356124 -0.05761729 24.24414062 -0.04296875 C28.59649494 -0.02578827 32.94752811 -0.04927731 37.29973507 -0.08445835 C40.66370775 -0.10649658 44.02736744 -0.10497541 47.39138985 -0.09669304 C48.99524954 -0.09587694 50.59913301 -0.10267467 52.20292473 -0.11746407 C68.43731846 -0.24423196 68.43731846 -0.24423196 74.53930664 5.53344727 C78.00628215 9.32545173 77.99313611 13.16432835 77.82446289 18.09985352 C77.2650829 22.87374026 75.51730394 25.62879976 72.03930664 28.84594727 C67.7932058 31.71206533 64.43121203 31.6726413 59.40917969 31.71044922 C58.68686157 31.71702042 57.96454346 31.72359161 57.22033691 31.73036194 C54.83056531 31.750068 52.44085647 31.76175131 50.05102539 31.77172852 C49.23382334 31.77580404 48.41662128 31.77987957 47.57465553 31.7840786 C43.24947997 31.80492757 38.92433602 31.81923451 34.59912109 31.82861328 C30.13686091 31.83967707 25.67509947 31.87407963 21.21301556 31.91378498 C17.77713609 31.93995566 14.34137542 31.94830548 10.90540504 31.95189476 C9.26079756 31.95675934 7.61619533 31.96836976 5.97168541 31.98693275 C3.66659604 32.01133558 1.36279674 32.01035782 -0.94238281 32.00341797 C-2.25237747 32.00928421 -3.56237213 32.01515045 -4.9120636 32.02119446 C-9.88353318 31.33788273 -12.99081562 29.20606676 -16.27319336 25.47094727 C-19.13093442 20.80831712 -19.03892672 15.82841275 -18.46069336 10.53344727 C-14.77844913 2.57979974 -8.32556479 0.04047809 0 0 Z " fill="#ED5D51" transform="translate(226.460693359375,338.466552734375)"/>
<path d="M0 0 C14.52 0 29.04 0 44 0 C44.33 12.54 44.66 25.08 45 38 C30.15 38 15.3 38 0 38 C0 25.46 0 12.92 0 0 Z " fill="#E2736E" transform="translate(42,404)"/>
<path d="M0 0 C6 2 6 2 8.9375 3.625 C17.93721549 7.54487608 29.16793764 5.34850364 38 2 C39.98 1.34 41.96 0.68 44 0 C44 12.54 44 25.08 44 38 C29.48 38 14.96 38 0 38 C0 25.46 0 12.92 0 0 Z " fill="#E2736E" transform="translate(42,267)"/>
<path d="M0 0 C0 10.23 0 20.46 0 31 C-7.2 29.8 -7.2 29.8 -11 26 C-14.45793091 20.99196214 -14.99059571 15.90619332 -14 10 C-12.15421706 5.77205275 -9.77284573 3.47916435 -5.875 1.0625 C-3 0 -3 0 0 0 Z " fill="#DB5C52" transform="translate(86,339)"/>
<path d="M0 0 C2.75329021 1.79562405 4.52627461 3.05254922 6 6 C6.48809142 10.31147425 6.50255798 12.29946463 3.9375 15.875 C0.37057683 18.4553274 -1.5941121 19.15459256 -6 19 C-9.46284326 17.01207146 -11.32404315 15.78697103 -12.734375 12.05859375 C-13.47317182 8.16513452 -13.31501034 6.510534 -11.1875 3.0625 C-7.5180176 -0.39729769 -5.00149901 -0.42385585 0 0 Z " fill="#D84F48" transform="translate(297,76)"/>
<path d="M0 0 C2.80732192 2.01394833 4.62383309 3.49836596 5.484375 6.93359375 C5.75150845 10.85897144 5.22114557 12.66828165 3 16 C-0.34888309 18.23258873 -2.13020876 18.7003485 -6.06640625 18.41015625 C-9.36385138 17.71069819 -10.86439595 16.58861097 -13 14 C-14.04806353 11.24810133 -14.39294703 8.92464862 -14 6 C-10.77386897 -0.09817451 -6.54797763 -1.83343374 0 0 Z " fill="#D84F48" transform="translate(275,50)"/>
<path d="M0 0 C2.875 1.5625 2.875 1.5625 5 4 C6.13194238 7.89105194 6.42938174 10.0056423 4.8125 13.75 C1.65116279 17.6744186 1.65116279 17.6744186 -1 19 C-5.23770109 19 -7.46784159 18.35477227 -11 16 C-13.46123044 12.30815434 -13.47251093 10.36811625 -12.703125 6.09375 C-10.65515495 -0.00464972 -5.7936609 -0.82766584 0 0 Z " fill="#D84F48" transform="translate(222,76)"/>
<path d="M0 0 C2.97247625 2.1120226 3.83352425 3.44111713 4.875 6.9375 C5.04889221 11.19785924 4.21915812 13.64016979 1.375 16.8125 C-2.079943 18.5399715 -5.2717196 18.77518701 -9 18 C-12 15.9375 -12 15.9375 -14 13 C-14.50984054 8.84844133 -14.56619697 5.42159595 -12 2 C-7.90546444 -1.39261518 -5.05671508 -1.37910411 0 0 Z " fill="#D84F48" transform="translate(246,50)"/>
<path d="M0 0 C3.55247432 0.87379409 4.94828114 2.4927342 6.9375 5.4765625 C7.9044424 9.72084065 7.41291541 12.61715772 5.3125 16.4140625 C2.40358332 18.94022698 0.77034932 19.39834109 -3.0625 19.4765625 C-5.98896178 18.72793274 -7.63306297 17.86157501 -9.875 15.8515625 C-11.60384989 12.39386271 -11.83087585 9.2076183 -11.0625 5.4765625 C-8.05531939 0.96579158 -5.26030565 -0.3785826 0 0 Z " fill="#D84F48" transform="translate(258.0625,75.5234375)"/>
</svg>
